<?xml version="1.0" encoding="UTF-8"?>
<svg width="30px" height="30px" viewBox="0 0 30 30" version="1.1" xmlns="http://www.w3.org/2000/svg" xmlns:xlink="http://www.w3.org/1999/xlink">
    <!-- Generator: Sketch 59.1 (86144) - https://sketch.com -->
    <title>download-solid copy</title>
    <desc>Created with Sketch.</desc>
    <g id="ring.me" stroke="none" stroke-width="1" fill="none" fill-rule="evenodd">
        <g id="v1" transform="translate(-845.000000, -923.000000)" fill="#04D80F" fill-rule="nonzero">
            <g id="Group-5" transform="translate(845.000000, 835.000000)">
                <g id="download-solid-copy" transform="translate(0.000000, 88.000000)">
                    <path d="M12.65625,0 L17.34375,0 C18.1230469,0 18.75,0.626953125 18.75,1.40625 L18.75,11.25 L23.8886719,11.25 C24.9316406,11.25 25.453125,12.5097656 24.7148438,13.2480469 L15.8027344,22.1660156 C15.3632812,22.6054688 14.6425781,22.6054688 14.203125,22.1660156 L5.27929687,13.2480469 C4.54101562,12.5097656 5.0625,11.25 6.10546875,11.25 L11.25,11.25 L11.25,1.40625 C11.25,0.626953125 11.8769531,0 12.65625,0 Z M30,22.03125 L30,28.59375 C30,29.3730469 29.3730469,30 28.59375,30 L1.40625,30 C0.626953125,30 0,29.3730469 0,28.59375 L0,22.03125 C0,21.2519531 0.626953125,20.625 1.40625,20.625 L10.0019531,20.625 L12.8730469,23.4960938 C14.0507812,24.6738281 15.9492188,24.6738281 17.1269531,23.4960938 L19.9980469,20.625 L28.59375,20.625 C29.3730469,20.625 30,21.2519531 30,22.03125 Z M22.734375,27.1875 C22.734375,26.5429688 22.2070312,26.015625 21.5625,26.015625 C20.9179688,26.015625 20.390625,26.5429688 20.390625,27.1875 C20.390625,27.8320312 20.9179688,28.359375 21.5625,28.359375 C22.2070312,28.359375 22.734375,27.8320312 22.734375,27.1875 Z M26.484375,27.1875 C26.484375,26.5429688 25.9570312,26.015625 25.3125,26.015625 C24.6679688,26.015625 24.140625,26.5429688 24.140625,27.1875 C24.140625,27.8320312 24.6679688,28.359375 25.3125,28.359375 C25.9570312,28.359375 26.484375,27.8320312 26.484375,27.1875 Z" id="Shape"></path>
                </g>
            </g>
        </g>
    </g>
</svg>