<?xml version="1.0" encoding="UTF-8"?>
<svg width="36px" height="30px" viewBox="0 0 36 30" version="1.1" xmlns="http://www.w3.org/2000/svg" xmlns:xlink="http://www.w3.org/1999/xlink">
    <!-- Generator: Sketch 59.1 (86144) - https://sketch.com -->
    <title>volume-up-solid copy</title>
    <desc>Created with Sketch.</desc>
    <g id="ring.me" stroke="none" stroke-width="1" fill="none" fill-rule="evenodd">
        <g id="v1" transform="translate(-891.000000, -923.000000)" fill="#00B4DD" fill-rule="nonzero">
            <g id="Group-5" transform="translate(845.000000, 835.000000)">
                <g id="volume-up-solid-copy" transform="translate(46.000000, 88.000000)">
                    <path d="M13.439375,3.44075292 L7.87875,8.99986666 L1.5,8.99986666 C0.67125,8.99986666 0,9.67108511 0,10.4997962 L0,19.4993732 C0,20.3274593 0.67125,20.9993027 1.5,20.9993027 L7.87875,20.9993027 L13.439375,26.5584165 C14.37875,27.4977473 16,26.8377783 16,25.4978413 L16,4.50132808 C16,3.16014111 14.3775,2.50267201 13.439375,3.44075292 Z M28.021875,0.248402957 C27.32375,-0.209700513 26.385625,-0.0165845893 25.9275,0.682757543 C25.46875,1.38084973 25.66375,2.31893065 26.361875,2.77703412 C30.50375,5.49503138 32.975625,10.0641916 32.975625,15.0002097 C32.975625,19.9362277 30.50375,24.5053879 26.361875,27.2233852 C25.66375,27.6808637 25.46875,28.6195696 25.9275,29.3170368 C26.3675,29.9863803 27.298125,30.226994 28.021875,29.7513914 C33.016875,26.4727955 36,20.9574297 36,14.9995847 C36,9.04173969 33.016875,3.52699887 28.021875,0.248402957 Z M30,14.9995847 C30,11.0291463 27.99625,7.37869285 24.639375,5.2350436 C23.94,4.78881457 23.0125,4.99630482 22.569375,5.70127169 C22.12625,6.40623855 22.333125,7.3393197 23.0325,7.7861737 C25.516875,9.37297412 27,12.0690974 27,14.9995847 C27,17.930072 25.516875,20.6261953 23.0325,22.2129957 C22.333125,22.6592247 22.12625,23.5923059 22.569375,24.2978977 C22.97625,24.9453673 23.889375,25.2441032 24.639375,24.7641258 C27.99625,22.6204765 30,18.9706481 30,14.9995847 Z M21.139375,10.1954355 C20.415625,9.79982906 19.5025,10.0604418 19.10125,10.7860327 C18.701875,11.5116236 18.96625,12.4234558 19.691875,12.8240619 C20.49875,13.2671661 21,14.1015019 21,14.9995847 C21,15.8982925 20.49875,16.7320033 19.6925,17.1751074 C18.966875,17.5757136 18.7025,18.4875458 19.101875,19.2131367 C19.50375,19.9418524 20.4175,20.2005903 21.14,19.8037339 C22.904375,18.8319046 24.000625,16.9913661 24.000625,14.9989597 C24.000625,13.0065534 22.904375,11.1666398 21.139375,10.1954355 Z" id="Shape"></path>
                </g>
            </g>
        </g>
    </g>
</svg>