<svg xmlns="http://www.w3.org/2000/svg"  viewBox="0 0 40 40" width="50px" height="50px"><path fill="#fff" d="M4.2,29.3l-0.1-0.2c-1.6-2.8-2.5-6-2.5-9.2C1.7,9.8,9.9,1.5,20.1,1.5c4.9,0,9.6,1.9,13,5.4	c3.5,3.5,5.4,8.1,5.4,13c0,10.2-8.3,18.4-18.4,18.4c-3.1,0-6.1-0.8-8.8-2.2L11.1,36l-9.4,2.5L4.2,29.3z"/><path fill="#4788c7" d="M20.1,2L20.1,2c4.8,0,9.3,1.9,12.7,5.3c3.4,3.4,5.2,7.9,5.2,12.7c0,9.9-8,17.9-17.9,17.9c-3,0-6-0.8-8.6-2.2	l-0.3-0.2l-0.4,0.1l-8.4,2.2l2.2-8.1l0.1-0.4l-0.2-0.4c-1.6-2.7-2.4-5.8-2.4-9C2.2,10,10.2,2,20.1,2 M20.1,1C9.7,1,1.2,9.5,1.2,19.9	c0,3.3,0.9,6.6,2.5,9.5L1,39.2l10-2.6c2.8,1.5,5.9,2.3,9,2.3h0c10.4,0,18.9-8.5,18.9-18.9c0-5.1-2-9.8-5.5-13.4	C29.9,3,25.1,1,20.1,1L20.1,1z"/><path fill="#98ccfd" d="M20,35c-2.5,0-5-0.6-7.2-1.8l-1.4-0.8l-1.6,0.4l-3.2,0.8l0.8-3L7.9,29L7,27.5c-1.3-2.3-2-4.9-2-7.5	c0-8.3,6.7-15,15-15c4,0,7.8,1.6,10.6,4.4C33.4,12.2,35,16,35,20C35,28.3,28.3,35,20,35z"/><path fill="#fff" d="M28.1,24.2c-0.4-0.2-2.6-1.3-3-1.4c-0.4-0.1-0.7-0.2-1,0.2c-0.3,0.4-1.1,1.4-1.4,1.7c-0.3,0.3-0.5,0.3-1,0.1	s-1.9-0.7-3.6-2.2c-1.3-1.2-2.2-2.6-2.5-3.1s0-0.7,0.2-0.9c0.2-0.2,0.4-0.5,0.7-0.8s0.3-0.4,0.4-0.7c0.1-0.3,0.1-0.6,0-0.8	c-0.1-0.2-1-2.4-1.4-3.3c-0.4-0.9-0.7-0.7-1-0.8c-0.3,0-0.6,0-0.8,0c-0.3,0-0.8,0.1-1.2,0.6S11,14.4,11,16.5s1.6,4.3,1.8,4.6	s3.1,4.8,7.6,6.7c1.1,0.5,1.9,0.7,2.5,0.9c1.1,0.3,2,0.3,2.8,0.2c0.9-0.1,2.6-1.1,3-2.1c0.4-1,0.4-1.9,0.3-2.1	C28.8,24.5,28.5,24.4,28.1,24.2z"/></svg>