<?xml version="1.0" encoding="UTF-8"?>
<svg width="59px" height="65px" viewBox="0 0 59 65" version="1.1" xmlns="http://www.w3.org/2000/svg" xmlns:xlink="http://www.w3.org/1999/xlink">
    <!-- Generator: Sketch 59.1 (86144) - https://sketch.com -->
    <title>bell-solid</title>
    <desc>Created with Sketch.</desc>
    <g id="ring.me" stroke="none" stroke-width="1" fill="none" fill-rule="evenodd">
        <g id="v2" transform="translate(-1328.000000, -1125.000000)" fill="#FFCF00" fill-rule="nonzero">
            <g id="bell-solid" transform="translate(1328.000000, 1125.000000)">
                <path d="M29.4767442,65 C34.1245668,65 37.8946721,61.362793 37.8946721,56.875 L21.0588163,56.875 C21.0588163,61.362793 24.8289216,65 29.4767442,65 Z M57.8203034,45.9938477 C55.2779497,43.3583008 50.5209059,39.3935547 50.5209059,26.40625 C50.5209059,16.5419922 43.3517843,8.64550781 33.6850502,6.70820313 L33.6850502,4.0625 C33.6850502,1.81923828 31.8006555,0 29.4767442,0 C27.1528329,0 25.2684382,1.81923828 25.2684382,4.0625 L25.2684382,6.70820313 C15.6017041,8.64550781 8.43258246,16.5419922 8.43258246,26.40625 C8.43258246,39.3935547 3.67553865,43.3583008 1.13318494,45.9938477 C0.343634102,46.8126953 -0.00640010369,47.7915039 8.85056321e-05,48.75 C0.0146545854,50.8320313 1.70824114,52.8125 4.22427648,52.8125 L54.7292119,52.8125 C57.2452472,52.8125 58.9401497,50.8320313 58.9533999,48.75 C58.9598885,47.7915039 58.6098543,46.8114258 57.8203034,45.9938477 L57.8203034,45.9938477 Z" id="Shape"></path>
            </g>
        </g>
    </g>
</svg>