<?xml version="1.0" standalone="no"?>
<!DOCTYPE svg PUBLIC "-//W3C//DTD SVG 20010904//EN"
 "http://www.w3.org/TR/2001/REC-SVG-20010904/DTD/svg10.dtd">
<svg version="1.0" xmlns="http://www.w3.org/2000/svg"
 width="36.000000pt" height="36.000000pt" viewBox="0 0 36.000000 36.000000"
 preserveAspectRatio="xMidYMid meet">

<g transform="translate(0.000000,36.000000) scale(0.100000,-0.100000)"
fill="#000000" stroke="none">
<path d="M148 333 c7 -3 16 -2 19 1 4 3 -2 6 -13 5 -11 0 -14 -3 -6 -6z"/>
<path d="M204 302 c50 -64 26 -147 -49 -172 -30 -10 -41 -9 -72 7 -21 10 -43
29 -50 43 -7 14 -13 19 -13 12 0 -51 61 -87 137 -79 29 3 51 2 49 -2 -3 -4 19
-31 48 -60 l53 -52 28 23 c33 29 28 45 -36 102 -30 27 -44 35 -52 27 -21 -21
-26 -11 -10 17 22 38 10 94 -29 135 l-30 32 26 -33z m110 -213 c15 -17 24 -34
21 -37 -6 -7 -85 68 -85 80 0 15 37 -10 64 -43z"/>
<path d="M30 285 c-6 -8 -10 -19 -8 -24 1 -6 8 1 15 14 13 28 11 31 -7 10z"/>
<path d="M11 224 c0 -11 3 -14 6 -6 3 7 2 16 -1 19 -3 4 -6 -2 -5 -13z"/>
</g>
</svg>
